HIERARCHY
ROOT Hips
{
	OFFSET 0.000000 0.000000 0.000000
	CHANNELS 6 Xposition Yposition Zposition Xrotation Yrotation Zrotation
	JOINT LeftUpLeg_virtual
	{
		OFFSET 0.000000 0.000000 0.000000
		CHANNELS 3 Xrotation Yrotation Zrotation
		JOINT LeftUpLeg
		{
			OFFSET 10.205400 -3.823500 0.155100
			CHANNELS 3 Xrotation Yrotation Zrotation
			JOINT LeftLeg
			{
				OFFSET 0.708757 -12.982077 0.567790
				CHANNELS 3 Xrotation Yrotation Zrotation
				JOINT LeftFoot
				{
					OFFSET -0.708756 -10.717838 -2.184338
					CHANNELS 3 Xrotation Yrotation Zrotation
					JOINT LeftToeBase
					{
						OFFSET 0.108149 -7.191104 7.560241
						CHANNELS 3 Xrotation Yrotation Zrotation
						JOINT LeftToe_End
						{
							OFFSET 0.070230 0.081724 4.490308
							CHANNELS 3 Xrotation Yrotation Zrotation
							End Site
							{
								OFFSET 0 0 0
							}
						}
					}
				}
			}
		}
	}
	JOINT RightUpLeg_virtual
	{
		OFFSET 0.000000 0.000000 0.000000
		CHANNELS 3 Xrotation Yrotation Zrotation
		JOINT RightUpLeg
		{
			OFFSET -10.205400 -3.823500 0.005500
			CHANNELS 3 Xrotation Yrotation Zrotation
			JOINT RightLeg
			{
				OFFSET -0.708756 -12.982134 0.610632
				CHANNELS 3 Xrotation Yrotation Zrotation
				JOINT RightFoot
				{
					OFFSET 0.708754 -10.717769 -1.945823
					CHANNELS 3 Xrotation Yrotation Zrotation
					JOINT RightToeBase
					{
						OFFSET -0.108140 -7.191069 7.372968
						CHANNELS 3 Xrotation Yrotation Zrotation
						JOINT RightToe_End
						{
							OFFSET -0.070227 0.081735 4.479403
							CHANNELS 3 Xrotation Yrotation Zrotation
							End Site
							{
								OFFSET 0 0 0
							}
						}
					}
				}
			}
		}
	}
	JOINT Spine_virtual
	{
		OFFSET 0.000000 0.000000 0.000000
		CHANNELS 3 Xrotation Yrotation Zrotation
		JOINT Spine
		{
			OFFSET 0.000000 6.876099 0.125700
			CHANNELS 3 Xrotation Yrotation Zrotation
			JOINT Spine1
			{
				OFFSET 0.000000 5.730043 0.104720
				CHANNELS 3 Xrotation Yrotation Zrotation
				JOINT Spine1_split
				{
					OFFSET 0.000000 5.730043 0.104720
					CHANNELS 3 Xrotation Yrotation Zrotation
					JOINT Spine2
					{
						OFFSET 0.000000 5.730043 0.104720
						CHANNELS 3 Xrotation Yrotation Zrotation
						JOINT Neck_virtual
						{
							OFFSET 0.000000 0.000000 0.000000
							CHANNELS 3 Xrotation Yrotation Zrotation
							JOINT Neck
							{
								OFFSET 0.000000 10.314075 0.188496
								CHANNELS 3 Xrotation Yrotation Zrotation
								JOINT Head
								{
									OFFSET 0.000000 7.643700 -2.377400
									CHANNELS 3 Xrotation Yrotation Zrotation
									JOINT HeadTop_End
									{
										OFFSET 0.000000 43.788605 -13.619600
										CHANNELS 3 Xrotation Yrotation Zrotation
										End Site
										{
											OFFSET 0 0 0
										}
									}
								}
							}
						}
						JOINT LeftShoulder_virtual
						{
							OFFSET 0.000000 0.000000 0.000000
							CHANNELS 3 Xrotation Yrotation Zrotation
							JOINT LeftShoulder
							{
								OFFSET 2.196100 4.412489 0.087492
								CHANNELS 3 Xrotation Yrotation Zrotation
								JOINT LeftShoulder_split
								{
									OFFSET 2.196100 4.412489 0.087492
									CHANNELS 3 Xrotation Yrotation Zrotation
									JOINT LeftArm
									{
										OFFSET 8.771219 -2.981674 -0.026999
										CHANNELS 3 Xrotation Yrotation Zrotation
										JOINT LeftForeArm
										{
											OFFSET 8.512804 0.000000 -0.000000
											CHANNELS 3 Xrotation Yrotation Zrotation
											JOINT LeftHand
											{
												OFFSET 18.484802 0.000000 -0.000000
												CHANNELS 3 Xrotation Yrotation Zrotation
												End Site
												{
													OFFSET 0 0 0
												}
											}
										}
									}
								}
							}
						}
						JOINT RightShoulder_virtual
						{
							OFFSET 0.000000 0.000000 0.000000
							CHANNELS 3 Xrotation Yrotation Zrotation
							JOINT RightShoulder
							{
								OFFSET -2.196100 4.412496 0.070690
								CHANNELS 3 Xrotation Yrotation Zrotation
								JOINT RightShoulder_split
								{
									OFFSET -2.196100 4.412496 0.070690
									CHANNELS 3 Xrotation Yrotation Zrotation
									JOINT RightArm
									{
										OFFSET -8.771282 -2.981682 -0.094208
										CHANNELS 3 Xrotation Yrotation Zrotation
										JOINT RightForeArm
										{
											OFFSET -8.494598 0.000000 0.000000
											CHANNELS 3 Xrotation Yrotation Zrotation
											JOINT RightHand
											{
												OFFSET -18.483803 0.000000 0.000001
												CHANNELS 3 Xrotation Yrotation Zrotation
												End Site
												{
													OFFSET 0 0 0
												}
											}
										}
									}
								}
							}
						}
					}
				}
			}
		}
	}
}
MOTION
Frames: 9
Frame Time: 0.03333333
0.119307 33.029606 -0.729921 0.000000 0.000000 0.000000 3.443650 -32.096725 2.356475 -14.460064 15.454507 17.632779 25.955897 11.156996 -6.190399 -14.272434 -2.146785 -9.763160 2.748940 0.111043 -0.348849 0.000000 0.000000 0.000000 3.979074 -31.446287 2.411211 -12.699288 0.076368 -12.221097 18.595885 10.786855 1.587392 -11.327750 -2.739764 7.125734 -1.589414 -0.004969 0.431289 0.000000 0.000000 0.000000 3.513608 -30.735155 1.543686 7.513936 -0.157052 -1.401387 1.219012 -0.870699 2.373767 0.446013 0.362890 0.572833 0.000000 0.000000 0.000000 1.048651 -0.398247 2.545443 -4.565219 17.716490 -7.072546 -5.924836 15.261496 0.474443 0.000000 0.000000 0.000000 1.137491 -0.642482 2.629235 0.970841 -10.224225 0.452204 1.462311 -0.028639 0.269640 -59.744013 1.361641 -39.329363 9.719680 -60.254460 11.979119 0.000000 0.000000 0.000000 0.761692 -0.519613 2.665135 4.769079 6.196915 7.321136 -0.737768 -0.148964 -1.687787 0.040351 0.609437 63.298054 12.419162 23.349743 -3.787819 0.000000 0.000000 0.000000 
0.108641 33.028984 -0.702744 0.000000 0.000000 0.000000 3.555842 -32.058756 2.384009 -14.535269 15.417822 17.630101 25.942033 11.161667 -6.120937 -14.298345 -2.114644 -9.806590 2.705344 0.111049 -0.348538 0.000000 0.000000 0.000000 4.095147 -31.377360 2.425677 -12.711184 0.189940 -12.215499 18.671567 10.842328 1.571779 -11.254356 -2.707633 7.216774 -1.635366 -0.039097 0.438563 0.000000 0.000000 0.000000 3.636443 -30.672105 1.567973 7.481802 -0.155686 -1.424267 1.200792 -0.886718 2.377610 0.508414 0.318103 0.646312 0.000000 0.000000 0.000000 1.043546 -0.403695 2.564690 -4.516932 17.865068 -7.128691 -5.903829 15.312285 0.480702 0.000000 0.000000 0.000000 1.117414 -0.644987 2.644646 0.947846 -10.114211 0.333751 1.550363 -0.114859 0.342409 -59.667249 1.423736 -39.252523 9.881642 -60.262684 12.055169 0.000000 0.000000 0.000000 0.761249 -0.521777 2.674967 4.716869 6.250600 7.465579 -0.910907 -0.212497 -1.655403 0.119356 0.651027 63.271130 12.404566 23.141804 -3.780888 0.000000 0.000000 0.000000 
0.091736 33.027645 -0.682537 0.000000 0.000000 0.000000 3.752415 -31.965774 2.431661 -14.678452 15.277672 17.623466 25.936955 11.167298 -6.076105 -14.345767 -2.068145 -9.847610 2.666557 0.110039 -0.338448 0.000000 0.000000 0.000000 4.276234 -31.303908 2.463670 -12.733745 0.249558 -12.192131 18.727895 10.859606 1.564461 -11.291601 -2.697234 7.246732 -1.611706 -0.068855 0.451857 0.000000 0.000000 0.000000 3.865211 -30.589829 1.625931 7.448434 -0.146148 -1.449938 1.169613 -0.877582 2.377612 0.540955 0.236815 0.686695 0.000000 0.000000 0.000000 1.039160 -0.382435 2.572929 -4.416872 18.179235 -7.228281 -5.963209 15.529608 0.567848 0.000000 0.000000 0.000000 1.098106 -0.620534 2.647986 0.917778 -9.924237 0.210605 1.626119 -0.135802 0.442053 -59.647584 1.488235 -39.198206 9.958555 -60.363286 12.052921 0.000000 0.000000 0.000000 0.753197 -0.500436 2.674281 4.675247 6.319583 7.628836 -1.009426 -0.281037 -1.690034 0.211476 0.667208 63.250605 12.357488 22.930127 -3.786802 0.000000 0.000000 0.000000 
0.069469 33.024769 -0.666948 0.000000 0.000000 0.000000 4.008555 -31.790999 2.491456 -14.899837 15.055281 17.618587 25.941767 11.183982 -6.067589 -14.402096 -2.015260 -9.857872 2.674174 0.107943 -0.328227 0.000000 0.000000 0.000000 4.507489 -31.201766 2.519829 -12.773499 0.257258 -12.160535 18.735759 10.852444 1.562895 -11.417840 -2.698206 7.248453 -1.539714 -0.087080 0.461194 0.000000 0.000000 0.000000 4.168032 -30.479890 1.710498 7.412662 -0.129215 -1.467877 1.125901 -0.843914 2.372144 0.493169 0.149736 0.679286 0.000000 0.000000 0.000000 1.031757 -0.339910 2.572921 -4.255525 18.668659 -7.407747 -6.119228 15.928329 0.704748 0.000000 0.000000 0.000000 1.081763 -0.575402 2.640329 0.889034 -9.681819 0.107553 1.680861 -0.047257 0.574324 -59.703503 1.551935 -39.198896 9.928255 -60.474707 11.955717 0.000000 0.000000 0.000000 0.739659 -0.459500 2.664785 4.643080 6.413390 7.779648 -1.019994 -0.315905 -1.791164 0.304135 0.674156 63.260584 12.287679 22.701746 -3.802782 0.000000 0.000000 0.000000 
0.041835 33.021923 -0.657017 0.000000 0.000000 0.000000 4.298817 -31.526097 2.556697 -15.204997 14.763906 17.619434 25.952403 11.224012 -6.104548 -14.444781 -1.963199 -9.821048 2.731716 0.106691 -0.315652 0.000000 0.000000 0.000000 4.781161 -31.015978 2.589549 -12.806759 0.221237 -12.124598 18.698420 10.844075 1.562364 -11.627778 -2.697942 7.247367 -1.477154 -0.093033 0.464119 0.000000 0.000000 0.000000 4.519334 -30.308958 1.811085 7.368634 -0.107803 -1.473515 1.077456 -0.792120 2.360251 0.424332 0.038262 0.680236 0.000000 0.000000 0.000000 1.019637 -0.282840 2.565328 -4.016569 19.344581 -7.714895 -6.380325 16.526136 0.861913 0.000000 0.000000 0.000000 1.070222 -0.516380 2.626573 0.870109 -9.415192 0.037959 1.710326 0.113633 0.711099 -59.850837 1.646883 -39.279994 9.793987 -60.536814 11.764885 0.000000 0.000000 0.000000 0.727401 -0.405345 2.649221 4.618966 6.533963 7.885958 -0.981549 -0.294399 -1.923947 0.405438 0.660827 63.310806 12.205364 22.474888 -3.825144 0.000000 0.000000 0.000000 
0.006866 33.018787 -0.652416 0.000000 0.000000 0.000000 4.609386 -31.164429 2.627637 -15.573680 14.420846 17.623633 25.956023 11.280720 -6.188382 -14.437495 -1.929272 -9.744954 2.799439 0.105589 -0.287574 0.000000 0.000000 0.000000 5.071378 -30.708776 2.662548 -12.811657 0.140183 -12.080346 18.625694 10.834297 1.556591 -11.919698 -2.699703 7.230800 -1.431476 -0.089589 0.465709 0.000000 0.000000 0.000000 4.882637 -30.048003 1.916584 7.309732 -0.082591 -1.467058 1.030973 -0.730920 2.340550 0.359931 -0.113972 0.710926 0.000000 0.000000 0.000000 1.003547 -0.217878 2.551747 -3.679195 20.208911 -8.197296 -6.744253 17.350974 1.001409 0.000000 0.000000 0.000000 1.070269 -0.451017 2.610943 0.865657 -9.154611 0.017987 1.725570 0.234895 0.794911 -60.125827 1.768210 -39.475918 9.586740 -60.541738 11.507949 0.000000 0.000000 0.000000 0.721832 -0.344986 2.629727 4.601259 6.680792 7.923988 -0.908166 -0.247385 -2.046551 0.504858 0.586850 63.408116 12.122738 22.274835 -3.852911 0.000000 0.000000 0.000000 
-0.035433 33.014595 -0.648735 0.000000 0.000000 0.000000 4.919685 -30.693832 2.703532 -15.994266 14.030566 17.633460 25.948058 11.345376 -6.311806 -14.355727 -1.929235 -9.648018 2.845464 0.102907 -0.239720 0.000000 0.000000 0.000000 5.353206 -30.280148 2.728323 -12.789744 -0.003976 -12.022996 18.563918 10.797310 1.539772 -12.288328 -2.722516 7.162374 -1.370571 -0.083835 0.477030 0.000000 0.000000 0.000000 5.240631 -29.676130 2.019094 7.234489 -0.052699 -1.453528 0.996528 -0.669361 2.310229 0.324184 -0.255228 0.757343 0.000000 0.000000 0.000000 0.994783 -0.151863 2.533561 -3.220434 21.262003 -8.881218 -7.205232 18.398165 1.105617 0.000000 0.000000 0.000000 1.081777 -0.384185 2.594259 0.875656 -8.923281 0.036549 1.739581 0.269160 0.847687 -60.536069 1.899662 -39.794615 9.374415 -60.527948 11.242991 0.000000 0.000000 0.000000 0.718863 -0.284563 2.605729 4.591180 6.844488 7.894158 -0.807106 -0.205427 -2.125839 0.608341 0.406985 63.536079 12.049022 22.144920 -3.879688 0.000000 0.000000 0.000000 
-0.081589 33.010120 -0.643650 0.000000 0.000000 0.000000 5.212595 -30.105404 2.772758 -16.461869 13.601477 17.651032 25.938562 11.395914 -6.463920 -14.192693 -1.981792 -9.549687 2.877031 0.095729 -0.173155 0.000000 0.000000 0.000000 5.609806 -29.732319 2.779910 -12.742821 -0.238294 -11.956721 18.562646 10.718916 1.514715 -12.724560 -2.780920 7.022211 -1.286735 -0.086056 0.503214 0.000000 0.000000 0.000000 5.578854 -29.180344 2.112841 7.144343 -0.017786 -1.438843 0.979099 -0.610647 2.270409 0.318224 -0.358043 0.821171 0.000000 0.000000 0.000000 1.005394 -0.088505 2.512106 -2.616753 22.483902 -9.773808 -7.750999 19.635718 1.168159 0.000000 0.000000 0.000000 1.102511 -0.316302 2.579212 0.895718 -8.727816 0.073290 1.745877 0.285939 0.840517 -61.036708 2.040800 -40.185746 9.195409 -60.523659 11.004529 0.000000 0.000000 0.000000 0.713913 -0.231333 2.576846 4.586561 7.023177 7.805109 -0.688392 -0.193415 -2.175937 0.753482 0.109682 63.658948 11.997702 22.090743 -3.900161 0.000000 0.000000 0.000000 
-0.129755 33.005295 -0.637188 0.000000 0.000000 0.000000 5.480397 -29.391134 2.827421 -16.969600 13.144101 17.676118 25.942529 11.410199 -6.637763 -13.973338 -2.105617 -9.464708 2.915372 0.081619 -0.097309 0.000000 0.000000 0.000000 5.832730 -29.070429 2.814212 -12.667205 -0.578085 -11.891817 18.642223 10.597645 1.488758 -13.222042 -2.874577 6.820151 -1.190591 -0.100499 0.537395 0.000000 0.000000 0.000000 5.890960 -28.555250 2.191839 7.044997 0.027013 -1.426625 0.978540 -0.554102 2.225409 0.338444 -0.437181 0.833954 0.000000 0.000000 0.000000 1.030060 -0.028600 2.487783 -1.868013 23.823543 -10.857546 -8.356745 20.993124 1.197353 0.000000 0.000000 0.000000 1.127539 -0.246075 2.567296 0.922041 -8.565112 0.110608 1.784738 0.332076 0.801306 -61.530702 2.187931 -40.556058 9.077869 -60.526240 10.815939 0.000000 0.000000 0.000000 0.708673 -0.183389 2.544202 4.581241 7.219936 7.665012 -0.553520 -0.207117 -2.210784 0.978117 -0.265433 63.748949 11.976778 22.088075 -3.919614 0.000000 0.000000 0.000000 
